<?xml version="1.0" standalone="no"?><!DOCTYPE svg PUBLIC "-//W3C//DTD SVG 1.1//EN" "http://www.w3.org/Graphics/SVG/1.1/DTD/svg11.dtd"><svg t="1562571002420" class="icon" viewBox="0 0 1024 1024" version="1.1" xmlns="http://www.w3.org/2000/svg" p-id="8467" xmlns:xlink="http://www.w3.org/1999/xlink" width="200" height="200"><defs><style type="text/css"></style></defs><path d="M213.39648 318.22336h381.78816c16.19968 0 32.4096-0.11264 48.60928 0.09216 57.24672 0.71168 113.67424 23.10144 157.56288 59.43296 90.9056 75.24864 117.5552 206.3872 66.02752 311.91552-42.55744 87.14752-134.2208 143.232-230.85568 143.232H184.3712c-33.01888 0-33.01888 51.2 0 51.2h382.52544c63.34976 0 124.7744 1.73568 185.07264-22.49216 107.70944-43.27424 178.8928-143.39072 191.744-257.55136 12.7488-113.31584-45.45536-223.62624-138.09664-286.61248-63.70304-43.3152-136.10496-50.41664-210.44224-50.41664H213.38624c-33.00864 0-33.00864 51.2 0.01024 51.2z" p-id="8468"></path><path d="M322.59584 110.3104a255707.4944 255707.4944 0 0 1-162.4064 162.5088c-9.86112 9.86112-9.86112 26.3424 0 36.20352 49.49504 49.49504 98.98496 98.98496 148.39296 148.48 23.32672 23.36256 59.50464-12.83584 36.14208-36.20352a225198.63296 225198.63296 0 0 0-148.33152-148.48v36.20352c54.1696-54.1696 108.26752-108.3392 162.3552-162.5088 23.3728-23.36256-12.8256-59.56608-36.15232-36.20352z" p-id="8469"></path></svg>