<?xml version="1.0" standalone="no"?><!DOCTYPE svg PUBLIC "-//W3C//DTD SVG 1.1//EN" "http://www.w3.org/Graphics/SVG/1.1/DTD/svg11.dtd"><svg t="1563243636635" class="icon" viewBox="0 0 1024 1024" version="1.1" xmlns="http://www.w3.org/2000/svg" p-id="2717" xmlns:xlink="http://www.w3.org/1999/xlink" width="200" height="200"><defs><style type="text/css"></style></defs><path d="M584.340782 1024 287.542905 1024c-4.637656 0-8.397318-3.758656-8.397318-8.396311s3.759663-8.396311 8.397318-8.396311l296.797877 0c4.636649 0 8.396311 3.758656 8.396311 8.396311S588.977431 1024 584.340782 1024z" p-id="2718"></path><path d="M679.277802 130.000757c-9.540119 0-18.171031-6.545679-20.427433-16.235822L642.185619 42.204479c-2.629951-11.292077 4.391979-22.578113 15.685063-25.207058 11.29107-2.630958 22.577106 4.392986 25.207058 15.684056l16.66475 71.560456c2.629951 11.292077-4.391979 22.578113-15.685063 25.207058C682.456499 129.821533 680.854564 130.000757 679.277802 130.000757z" p-id="2719"></path><path d="M912.934693 314.545418c-1.378409 0-2.775948-0.135928-4.178522-0.419866l-72.020597-14.544276c-11.364572-2.29567-18.716756-13.368249-16.422094-24.732821s13.376304-18.712729 24.732821-16.422094l72.020597 14.544276c11.364572 2.29567 18.716756 13.368249 16.422094 24.732821C931.479274 307.666464 922.720488 314.545418 912.934693 314.545418z" p-id="2720"></path><path d="M798.135096 170.2223c-6.046271 0-12.044211-2.597732-16.196554-7.622026-7.383397-8.938009-6.124807-22.17033 2.813202-29.554734l61.759557-51.025287c8.938009-7.384404 22.17033-6.125813 29.554734 2.813202 7.384404 8.938009 6.125813 22.17033-2.812195 29.554734l-61.759557 51.025287C807.580568 168.645538 802.843232 170.2223 798.135096 170.2223z" p-id="2721"></path><path d="M876.080131 964.964033 372.96397 964.964033l67.150354-23.946453c12.044211-4.295319 18.325083-17.539722 14.030771-29.583933l-45.224694-126.819643c-4.295319-12.043204-17.539722-18.325083-29.583933-14.030771l-126.819643 45.224694c-12.043204 4.295319-18.325083 17.539722-14.030771 29.583933l45.224694 126.819643c0.78234 2.193976 1.864728 4.193625 3.178697 5.975789 1.195158 4.267126 5.034363 7.419645 9.643827 7.583765 5.146126 2.168804 11.086675 2.495031 16.76141 0.471216l1.267653-0.452086L876.080131 985.790188c5.751257 0 10.413077-4.661821 10.413077-10.413077C886.493209 969.626861 881.831388 964.964033 876.080131 964.964033z" p-id="2722"></path><path d="M490.846612 898.346315c4.295319 12.043204 17.539722 18.325083 29.583933 14.030771l126.819643-45.224694c12.043204-4.295319 18.325083-17.539722 14.030771-29.583933L616.055258 710.748816c-4.295319-12.044211-17.539722-18.325083-29.583933-14.030771l-126.819643 45.224694c-12.043204 4.295319-18.325083 17.539722-14.030771 29.583933L490.846612 898.346315z" p-id="2723"></path><path d="M369.901064 744.127653c12.043204-4.295319 18.325083-17.539722 14.030771-29.583933l-45.224694-126.819643c-4.295319-12.043204-17.539722-18.325083-29.583933-14.030771l-126.819643 45.224694c-12.043204 4.295319-18.325083 17.539722-14.030771 29.583933l45.224694 126.819643c4.295319 12.043204 17.539722 18.325083 29.583933 14.030771L369.901064 744.127653z" p-id="2724"></path><path d="M375.408657 574.635738l45.224694 126.819643c4.295319 12.043204 17.539722 18.325083 29.583933 14.030771l126.819643-45.224694c12.043204-4.295319 18.325083-17.539722 14.030771-29.583933l-45.224694-126.819643c-4.295319-12.043204-17.539722-18.325083-29.583933-14.030771l-126.819643 45.224694C377.395217 549.347123 371.114345 562.592534 375.408657 574.635738z" p-id="2725"></path><path d="M793.607189 622.85185l-126.819643 45.224694c-12.043204 4.295319-18.325083 17.539722-14.030771 29.583933l45.224694 126.819643c4.295319 12.044211 17.539722 18.325083 29.583933 14.030771l126.819643-45.224694c12.043204-4.295319 18.325083-17.539722 14.030771-29.583933L823.191123 636.882621C818.895804 624.83841 805.6514 618.557538 793.607189 622.85185z" p-id="2726"></path><path d="M577.561509 499.341798c0.233594 0.974653 0.52156 1.949306 0.859869 2.898786l7.96537 22.338478c0.639364 1.791227 2.325876 2.908855 4.124151 2.908855 0.488333 0 0.984721-0.082564 1.470034-0.254739 2.277546-0.812546 3.465656-3.316639 2.654116-5.594185l-7.96537-22.336464c-0.232588-0.652454-0.431948-1.323031-0.592041-1.994615-0.562842-2.352055-2.928993-3.805979-5.275006-3.240116C578.450577 494.628627 576.999674 496.989743 577.561509 499.341798z" p-id="2727"></path><path d="M601.183749 464.894669l-6.07849 2.167797c-7.510263 2.678281-13.485046 8.475854-16.393901 15.906575-0.881014 2.251367 0.229567 4.7907 2.479927 5.672721 0.524581 0.205402 1.064264 0.302062 1.594886 0.302062 1.748938 0 3.401216-1.055203 4.076828-2.782996 1.984546-5.068597 6.05936-9.023593 11.181321-10.85006l6.07849-2.167797c2.277546-0.812546 3.465656-3.316639 2.654116-5.594185C605.965387 465.27124 603.45626 464.084137 601.183749 464.894669z" p-id="2728"></path><path d="M725.521451 424.888597c0.134921 2.414481 2.226196 4.256051 4.613491 4.128178 7.303855-0.406777 14.159651 3.465656 17.584025 9.880442 0.788381 1.476075 2.301711 2.316814 3.866391 2.316814 0.695749 0 1.401567-0.166134 2.058048-0.517533 2.132556-1.138773 2.939061-3.790876 1.800288-5.923432-4.788687-8.969222-14.090176-14.541255-24.274694-14.541255-0.506457 0-1.012914 0.014096-1.520378 0.042289C727.235148 420.40902 725.387537 422.474116 725.521451 424.888597z" p-id="2729"></path><path d="M759.430909 609.597378c0.488333 0 0.984721-0.082564 1.470034-0.255746l24.741883-8.823225c2.277546-0.812546 3.465656-3.316639 2.654116-5.594185-0.812546-2.277546-3.320666-3.466663-5.594185-2.654116l-24.741883 8.823225c-2.277546 0.812546-3.465656 3.316639-2.654116 5.594185C755.946123 608.47975 757.632635 609.597378 759.430909 609.597378z" p-id="2730"></path><path d="M765.928259 489.340531l8.823225 24.741883c0.639364 1.791227 2.324869 2.908855 4.124151 2.908855 0.488333 0 0.984721-0.082564 1.470034-0.254739 2.277546-0.812546 3.465656-3.316639 2.654116-5.594185l-8.823225-24.741883c-0.812546-2.277546-3.320666-3.466663-5.594185-2.65311C766.303822 484.557886 765.116719 487.062985 765.928259 489.340531z" p-id="2731"></path><path d="M792.985949 565.215437l1.093464 3.065927c0.726962 2.039924 1.096484 4.161405 1.096484 6.305037 0 4.078841-1.367333 8.123449-3.849274 11.386723-1.462986 1.924134-1.090443 4.670882 0.833691 6.134875 0.792409 0.60211 1.723766 0.894103 2.648075 0.894103 1.32001 0 2.626931-0.596069 3.487807-1.727794 3.63481-4.778618 5.635466-10.70507 5.635466-16.687908 0-3.148491-0.539684-6.258721-1.603948-9.245105l-1.093464-3.065927c-0.812546-2.277546-3.320666-3.46767-5.594185-2.654116C793.361512 560.433799 792.174409 562.937891 792.985949 565.215437z" p-id="2732"></path><path d="M752.399917 451.403582l8.823225 24.741883c0.639364 1.791227 2.324869 2.908855 4.124151 2.908855 0.488333 0 0.984721-0.082564 1.470034-0.254739 2.277546-0.812546 3.465656-3.316639 2.654116-5.594185l-8.823225-24.741883c-0.812546-2.277546-3.321673-3.462635-5.594185-2.65311C752.775481 446.620937 751.587371 449.126036 752.399917 451.403582z" p-id="2733"></path><path d="M779.4566 527.278488l8.823225 24.740876c0.639364 1.791227 2.324869 2.909862 4.124151 2.909862 0.488333 0 0.984721-0.082564 1.470034-0.255746 2.277546-0.812546 3.465656-3.316639 2.654116-5.594185l-8.823225-24.741883c-0.812546-2.277546-3.320666-3.464649-5.594185-2.65311C779.833171 522.496849 778.645061 525.000942 779.4566 527.278488z" p-id="2734"></path><path d="M623.646072 629.060228c1.33612 3.750601 3.413298 7.091404 6.171123 9.929778 0.858862 0.883027 1.998642 1.326051 3.139429 1.326051 1.100512 0 2.200017-0.411811 3.051831-1.237447 1.733835-1.685505 1.773103-4.457425 0.088605-6.19126-1.876811-1.930175-3.29046-4.206714-4.203693-6.767191l-5.495511-15.410187c-0.812546-2.278553-3.321673-3.46767-5.594185-2.654116-2.277546 0.812546-3.465656 3.316639-2.654116 5.594185L623.646072 629.060228z" p-id="2735"></path><path d="M717.369809 620.216865c0.639364 1.791227 2.324869 2.908855 4.124151 2.908855 0.488333 0 0.984721-0.082564 1.470034-0.255746l24.740876-8.823225c2.277546-0.812546 3.465656-3.316639 2.65311-5.594185-0.812546-2.277546-3.320666-3.466663-5.594185-2.654116l-24.740876 8.823225C717.74638 615.435226 716.55827 617.939319 717.369809 620.216865z" p-id="2736"></path><path d="M677.057647 437.837986l-24.741883 8.823225c-2.277546 0.812546-3.465656 3.316639-2.65311 5.594185 0.639364 1.791227 2.324869 2.908855 4.124151 2.908855 0.488333 0 0.984721-0.082564 1.470034-0.254739l24.741883-8.823225c2.277546-0.812546 3.465656-3.316639 2.65311-5.594185C681.838279 438.21355 679.329152 437.02544 677.057647 437.837986z" p-id="2737"></path><path d="M706.827852 619.328803l-24.741883 8.824232c-2.277546 0.812546-3.465656 3.316639-2.654116 5.594185 0.639364 1.791227 2.324869 2.908855 4.124151 2.908855 0.488333 0 0.984721-0.082564 1.470034-0.255746l24.741883-8.824232c2.277546-0.812546 3.465656-3.316639 2.654116-5.594185C711.609491 619.704366 709.100364 618.516257 706.827852 619.328803z" p-id="2738"></path><path d="M714.995604 424.308638l-24.741883 8.823225c-2.277546 0.812546-3.465656 3.316639-2.654116 5.594185 0.639364 1.791227 2.324869 2.908855 4.124151 2.908855 0.488333 0 0.984721-0.082564 1.470034-0.254739l24.741883-8.823225c2.277546-0.812546 3.465656-3.316639 2.654116-5.594185C719.776235 424.684201 717.266102 423.497099 714.995604 424.308638z" p-id="2739"></path><path d="M613.444438 600.453967c0.639364 1.791227 2.324869 2.908855 4.124151 2.908855 0.488333 0 0.984721-0.082564 1.470034-0.255746 2.277546-0.812546 3.465656-3.316639 2.654116-5.594185l-8.823225-24.741883c-0.812546-2.278553-3.321673-3.46767-5.594185-2.654116-2.277546 0.812546-3.465656 3.316639-2.65311 5.594185L613.444438 600.453967z" p-id="2740"></path><path d="M608.16339 559.575943l-8.823225-24.74289c-0.813553-2.277546-3.32268-3.464649-5.594185-2.65311-2.277546 0.812546-3.465656 3.316639-2.654116 5.594185l8.823225 24.741883c0.639364 1.791227 2.324869 2.908855 4.124151 2.908855 0.488333 0 0.984721-0.082564 1.470034-0.255746C607.787827 564.356575 608.97493 561.852482 608.16339 559.575943z" p-id="2741"></path><path d="M668.890903 632.857144l-13.007788 4.638662c-3.199841 1.13978-6.639319 1.395526-9.949916 0.736024-2.368165-0.47323-4.675917 1.068292-5.147133 3.441491-0.47021 2.371185 1.069299 4.675917 3.441491 5.147133 1.76102 0.349385 3.561309 0.526594 5.351528 0.526594 3.149498 0 6.260734-0.539684 9.245105-1.603948l13.007788-4.638662c2.277546-0.812546 3.465656-3.316639 2.654116-5.594185C673.671535 633.232708 671.162408 632.044598 668.890903 632.857144z" p-id="2742"></path><path d="M639.120698 451.366328l-24.741883 8.823225c-2.277546 0.812546-3.465656 3.316639-2.654116 5.594185 0.639364 1.791227 2.324869 2.908855 4.124151 2.908855 0.488333 0 0.984721-0.081557 1.470034-0.254739l24.741883-8.823225c2.277546-0.812546 3.465656-3.316639 2.654116-5.594185C643.902336 451.741891 641.394217 450.554788 639.120698 451.366328z" p-id="2743"></path><path d="M257.414253 548.604051l-24.741883 8.823225c-2.277546 0.812546-3.465656 3.316639-2.65311 5.594185 0.639364 1.791227 2.324869 2.908855 4.124151 2.908855 0.488333 0 0.984721-0.082564 1.471041-0.255746l24.741883-8.823225c2.277546-0.812546 3.465656-3.316639 2.65311-5.594185C262.195892 548.980622 259.691799 547.792512 257.414253 548.604051z" p-id="2744"></path><path d="M204.373207 384.4395c0.488333 0 0.984721-0.082564 1.471041-0.254739l24.741883-8.823225c2.277546-0.812546 3.465656-3.316639 2.65311-5.594185-0.812546-2.276539-3.315632-3.463642-5.594185-2.65311l-24.741883 8.823225c-2.277546 0.812546-3.465656 3.316639-2.65311 5.594185C200.88842 383.321871 202.573925 384.4395 204.373207 384.4395z" p-id="2745"></path><path d="M242.786407 371.821371c7.33104-0.407783 14.158644 3.466663 17.584025 9.881449 0.788381 1.476075 2.301711 2.316814 3.865384 2.316814 0.695749 0 1.401567-0.166134 2.058048-0.517533 2.133563-1.13978 2.938055-3.791883 1.799282-5.924439-5.028322-9.41426-15.042678-15.088994-25.794065-14.498967-2.413474 0.133914-4.262092 2.200017-4.128178 4.614498C238.305823 370.107674 240.370919 371.94723 242.786407 371.821371z" p-id="2746"></path><path d="M166.435251 397.967841c0.488333 0 0.984721-0.082564 1.471041-0.254739l24.741883-8.823225c2.277546-0.812546 3.465656-3.316639 2.65311-5.594185-0.812546-2.277546-3.317646-3.462635-5.594185-2.65311l-24.741883 8.823225c-2.277546 0.812546-3.465656 3.316639-2.65311 5.594185C162.951471 396.85122 164.636976 397.967841 166.435251 397.967841z" p-id="2747"></path><path d="M265.049369 394.208179l8.823225 24.741883c0.639364 1.791227 2.324869 2.908855 4.124151 2.908855 0.488333 0 0.984721-0.082564 1.471041-0.254739 2.277546-0.812546 3.465656-3.316639 2.65311-5.594185l-8.823225-24.741883c-0.812546-2.276539-3.315632-3.463642-5.594185-2.65311C265.424933 389.42654 264.236823 391.930633 265.049369 394.208179z" p-id="2748"></path><path d="M128.498301 411.49719c0.488333 0 0.984721-0.082564 1.471041-0.254739l24.741883-8.823225c2.277546-0.812546 3.465656-3.316639 2.65311-5.594185-0.812546-2.277546-3.315632-3.463642-5.594185-2.65311l-24.741883 8.823225c-2.277546 0.812546-3.465656 3.316639-2.65311 5.594185C125.013515 410.379561 126.700027 411.49719 128.498301 411.49719z" p-id="2749"></path><path d="M295.351203 535.07571l-24.741883 8.823225c-2.277546 0.812546-3.465656 3.316639-2.65311 5.594185 0.639364 1.791227 2.324869 2.908855 4.124151 2.908855 0.488333 0 0.984721-0.082564 1.471041-0.255746l24.741883-8.823225c2.277546-0.812546 3.465656-3.316639 2.65311-5.594185C300.132841 535.451273 297.629756 534.265177 295.351203 535.07571z" p-id="2750"></path><path d="M278.577711 432.146135l8.823225 24.741883c0.639364 1.791227 2.324869 2.908855 4.124151 2.908855 0.488333 0 0.984721-0.082564 1.471041-0.254739 2.277546-0.812546 3.465656-3.316639 2.65311-5.594185l-8.823225-24.741883c-0.812546-2.277546-3.316639-3.463642-5.594185-2.65311C278.953274 427.36349 277.765164 429.868589 278.577711 432.146135z" p-id="2751"></path><path d="M304.811779 534.912596c0.792409 0.60211 1.723766 0.893096 2.647068 0.893096 1.321017 0 2.626931-0.595062 3.487807-1.727794 3.633804-4.777611 5.635466-10.704064 5.635466-16.685894 0-3.147484-0.540691-6.258721-1.605962-9.247119l-1.093464-3.065927c-0.812546-2.277546-3.316639-3.463642-5.594185-2.65311-2.277546 0.812546-3.465656 3.316639-2.65311 5.594185l1.093464 3.065927c0.727969 2.040931 1.097491 4.162412 1.097491 6.305037 0 4.078841-1.366326 8.122442-3.848267 11.385716C302.514095 530.701855 302.887645 533.448603 304.811779 534.912596z" p-id="2752"></path><path d="M292.106052 470.083084l8.823225 24.741883c0.639364 1.791227 2.324869 2.908855 4.124151 2.908855 0.488333 0 0.984721-0.082564 1.471041-0.254739 2.277546-0.812546 3.465656-3.316639 2.65311-5.594185l-8.823225-24.741883c-0.812546-2.276539-3.315632-3.462635-5.594185-2.65311C292.481616 465.301446 291.294513 467.805538 292.106052 470.083084z" p-id="2753"></path><path d="M93.841743 431.446358c0.523574 0.205402 1.064264 0.302062 1.594886 0.302062 1.748938 0 3.402223-1.055203 4.077834-2.782996 1.983539-5.068597 6.05936-9.023593 11.180314-10.85006l6.07849-2.167797c2.277546-0.812546 3.465656-3.316639 2.65311-5.594185-0.812546-2.276539-3.315632-3.463642-5.594185-2.65311l-6.07849 2.167797c-7.509257 2.678281-13.485046 8.475854-16.392894 15.906575C90.479795 428.025005 91.590376 430.565345 93.841743 431.446358z" p-id="2754"></path><path d="M219.476297 562.1334l-24.741883 8.824232c-2.277546 0.812546-3.465656 3.316639-2.65311 5.594185 0.638357 1.791227 2.324869 2.908855 4.123144 2.908855 0.488333 0 0.984721-0.082564 1.471041-0.255746l24.741883-8.824232c2.277546-0.812546 3.465656-3.316639 2.65311-5.594185C224.257936 562.508963 221.752836 561.320853 219.476297 562.1334z" p-id="2755"></path><path d="M144.542818 568.924756l-5.495511-15.411193c-0.812546-2.277546-3.316639-3.466663-5.594185-2.65311-2.277546 0.812546-3.465656 3.316639-2.65311 5.594185l5.496518 15.4122c1.338134 3.750601 3.414305 7.091404 6.171123 9.927765 0.858862 0.883027 1.998642 1.327058 3.140436 1.327058 1.099505 0 2.200017-0.411811 3.049817-1.237447 1.733835-1.685505 1.77411-4.457425 0.089612-6.190253C146.870707 573.760765 145.456051 571.484226 144.542818 568.924756z" p-id="2756"></path><path d="M134.341184 540.317489l-8.823225-24.741883c-0.812546-2.276539-3.315632-3.463642-5.594185-2.65311-2.277546 0.812546-3.465656 3.316639-2.65311 5.594185l8.823225 24.740876c0.639364 1.791227 2.324869 2.908855 4.124151 2.908855 0.488333 0 0.984721-0.082564 1.471041-0.255746C133.96562 545.098121 135.15373 542.594028 134.341184 540.317489z" p-id="2757"></path><path d="M107.283494 464.442583l-7.96537-22.338478c-0.232588-0.651447-0.430942-1.321017-0.590027-1.98958-0.559821-2.352055-2.921945-3.802958-5.272992-3.244144-2.352055 0.559821-3.804972 2.920938-3.244144 5.272992 0.232588 0.976667 0.52156 1.953333 0.860876 2.901807l7.96537 22.338478c0.639364 1.791227 2.324869 2.908855 4.124151 2.908855 0.488333 0 0.984721-0.081557 1.471041-0.254739C106.90793 469.225229 108.09604 466.72013 107.283494 464.442583z" p-id="2758"></path><path d="M184.480423 583.911049c2.277546-0.812546 3.465656-3.316639 2.654116-5.594185-0.812546-2.277546-3.317646-3.466663-5.594185-2.65311l-13.007788 4.637656c-3.198835 1.140787-6.640325 1.396532-9.949916 0.736024-2.366151-0.468196-4.675917 1.068292-5.147133 3.440484-0.471216 2.372192 1.068292 4.676924 3.440484 5.14814 1.760013 0.349385 3.561309 0.526594 5.352535 0.526594 3.148491 0 6.259728-0.539684 9.246112-1.603948L184.480423 583.911049z" p-id="2759"></path><path d="M120.812842 502.379533l-8.823225-24.741883c-0.812546-2.276539-3.315632-3.462635-5.594185-2.65311-2.277546 0.812546-3.465656 3.316639-2.65311 5.594185l8.823225 24.741883c0.639364 1.791227 2.324869 2.908855 4.124151 2.908855 0.488333 0 0.984721-0.082564 1.471041-0.254739C120.437279 507.162178 121.624381 504.657079 120.812842 502.379533z" p-id="2760"></path><path d="M298.206694 371.178987l7.966377 22.339484c0.639364 1.791227 2.324869 2.908855 4.124151 2.908855 0.488333 0 0.984721-0.082564 1.471041-0.254739 2.277546-0.812546 3.465656-3.316639 2.65311-5.594185l-7.966377-22.339484c-0.231581-0.65044-0.430942-1.319003-0.589021-1.98656-0.558814-2.352055-2.920938-3.805979-5.271985-3.246158-2.352055 0.558814-3.805979 2.919931-3.246158 5.271985C297.578405 369.253846 297.867378 370.230512 298.206694 371.178987z" p-id="2761"></path><path d="M313.531296 401.119353c-2.277546 0.812546-3.465656 3.316639-2.65311 5.594185l8.823225 24.741883c0.639364 1.791227 2.324869 2.908855 4.124151 2.908855 0.488333 0 0.984721-0.082564 1.471041-0.254739 2.277546-0.812546 3.465656-3.316639 2.65311-5.594185l-8.823225-24.741883C318.313941 401.495923 315.808842 400.309827 313.531296 401.119353z" p-id="2762"></path><path d="M511.947643 461.045395c0.791402 0.60211 1.722759 0.893096 2.647068 0.893096 1.321017 0 2.626931-0.596069 3.487807-1.727794 3.633804-4.777611 5.63446-10.704064 5.63446-16.684887 0-3.147484-0.539684-6.258721-1.604955-9.247119l-1.093464-3.066934c-0.812546-2.277546-3.314625-3.466663-5.594185-2.654116-2.277546 0.812546-3.465656 3.316639-2.654116 5.594185l1.093464 3.066934c0.727969 2.041938 1.097491 4.163419 1.097491 6.306044 0 4.077834-1.367333 8.120428-3.849274 11.383703C509.649959 456.83566 510.022502 459.582409 511.947643 461.045395z" p-id="2763"></path><path d="M300.978614 357.581171c0.523574 0.205402 1.063258 0.302062 1.593879 0.302062 1.749945 0 3.402223-1.056209 4.077834-2.784003 1.983539-5.068597 6.05936-9.0246 11.181321-10.851067l6.076477-2.16679c2.277546-0.812546 3.465656-3.316639 2.65311-5.594185-0.812546-2.277546-3.316639-3.462635-5.594185-2.65311l-6.076477 2.167797c-7.510263 2.678281-13.486053 8.476861-16.393901 15.907582C297.614653 354.160824 298.72624 356.700157 300.978614 357.581171z" p-id="2764"></path><path d="M403.34132 505.59347c0.488333 0 0.984721-0.082564 1.471041-0.254739l24.741883-8.823225c2.277546-0.812546 3.465656-3.316639 2.65311-5.594185-0.812546-2.276539-3.316639-3.462635-5.594185-2.65311l-24.741883 8.823225c-2.277546 0.812546-3.465656 3.316639-2.65311 5.594185C399.856533 504.475842 401.543045 505.59347 403.34132 505.59347z" p-id="2765"></path><path d="M479.216225 478.535781c0.488333 0 0.984721-0.081557 1.471041-0.254739l24.741883-8.823225c2.277546-0.812546 3.465656-3.316639 2.654116-5.594185-0.812546-2.277546-3.320666-3.462635-5.594185-2.65311l-24.74289 8.823225c-2.277546 0.812546-3.465656 3.316639-2.65311 5.594185C475.731439 477.418152 477.416944 478.535781 479.216225 478.535781z" p-id="2766"></path><path d="M441.278269 492.064122c0.488333 0 0.984721-0.082564 1.471041-0.254739l24.741883-8.823225c2.277546-0.812546 3.465656-3.316639 2.65311-5.594185-0.812546-2.277546-3.317646-3.463642-5.594185-2.65311l-24.741883 8.823225c-2.277546 0.812546-3.465656 3.316639-2.65311 5.594185C437.794489 490.9475 439.479994 492.064122 441.278269 492.064122z" p-id="2767"></path><path d="M335.633159 337.630995c0.488333 0 0.984721-0.082564 1.471041-0.254739l24.741883-8.823225c2.277546-0.812546 3.465656-3.316639 2.65311-5.594185-0.812546-2.276539-3.317646-3.462635-5.594185-2.65311l-24.741883 8.823225c-2.277546 0.812546-3.465656 3.316639-2.65311 5.594185C332.148372 336.514374 333.833877 337.630995 335.633159 337.630995z" p-id="2768"></path><path d="M472.184226 320.340977l8.823225 24.741883c0.639364 1.791227 2.324869 2.908855 4.124151 2.908855 0.488333 0 0.984721-0.082564 1.470034-0.254739 2.277546-0.812546 3.465656-3.316639 2.654116-5.594185l-8.823225-24.741883c-0.812546-2.276539-3.317646-3.463642-5.594185-2.65311C472.55979 315.559339 471.37168 318.063431 472.184226 320.340977z" p-id="2769"></path><path d="M485.713575 358.278934l8.823225 24.741883c0.639364 1.791227 2.324869 2.908855 4.124151 2.908855 0.488333 0 0.984721-0.082564 1.470034-0.254739 2.277546-0.812546 3.465656-3.316639 2.654116-5.594185l-8.823225-24.741883c-0.812546-2.277546-3.321673-3.464649-5.594185-2.65311C486.089138 353.496288 484.902035 356.001388 485.713575 358.278934z" p-id="2770"></path><path d="M449.91925 297.955177c7.329026-0.40577 14.159651 3.465656 17.586038 9.880442 0.788381 1.476075 2.301711 2.316814 3.865384 2.316814 0.695749 0 1.401567-0.166134 2.058048-0.517533 2.132556-1.138773 2.938055-3.791883 1.799282-5.924439-5.028322-9.41426-15.068857-15.095035-25.795072-14.49796-2.414481 0.133914-4.263099 2.200017-4.128178 4.613491C445.439674 296.24148 447.516852 298.080029 449.91925 297.955177z" p-id="2771"></path><path d="M499.241916 396.215883l8.823225 24.741883c0.639364 1.791227 2.325876 2.908855 4.124151 2.908855 0.488333 0 0.984721-0.081557 1.470034-0.254739 2.277546-0.812546 3.465656-3.316639 2.65311-5.594185l-8.823225-24.741883c-0.812546-2.277546-3.321673-3.463642-5.594185-2.65311C499.618486 391.433238 498.430377 393.938337 499.241916 396.215883z" p-id="2772"></path><path d="M324.406528 444.651494l8.823225 24.741883c0.639364 1.791227 2.324869 2.908855 4.124151 2.908855 0.488333 0 0.984721-0.082564 1.471041-0.254739 2.277546-0.812546 3.465656-3.316639 2.65311-5.594185l-8.823225-24.741883c-0.812546-2.277546-3.315632-3.463642-5.594185-2.65311C324.783098 439.869855 323.594989 442.373948 324.406528 444.651494z" p-id="2773"></path><path d="M346.183171 479.647368c-0.812546-2.277546-3.316639-3.464649-5.594185-2.65311-2.277546 0.812546-3.465656 3.316639-2.65311 5.594185l5.495511 15.410187c1.338134 3.751608 3.415312 7.092411 6.171123 9.929778 0.858862 0.884034 1.998642 1.327058 3.140436 1.327058 1.099505 0 2.200017-0.411811 3.049817-1.238453 1.733835-1.685505 1.77411-4.456419 0.089612-6.190253-1.875804-1.931182-3.29046-4.208728-4.203693-6.770212L346.183171 479.647368z" p-id="2774"></path><path d="M360.571381 510.611724c-0.471216 2.372192 1.068292 4.675917 3.439477 5.14814 1.76102 0.350392 3.561309 0.527601 5.352535 0.527601 3.148491 0 6.258721-0.540691 9.246112-1.605962l13.007788-4.638662c2.277546-0.812546 3.465656-3.316639 2.65311-5.594185-0.812546-2.277546-3.315632-3.464649-5.594185-2.65311l-13.006781 4.638662c-3.201855 1.142801-6.641332 1.395526-9.948909 0.737031C363.345316 506.699017 361.042598 508.240539 360.571381 510.611724z" p-id="2775"></path><path d="M411.508064 310.573305c0.488333 0 0.984721-0.082564 1.471041-0.254739l24.741883-8.823225c2.277546-0.812546 3.465656-3.316639 2.65311-5.594185-0.812546-2.276539-3.316639-3.462635-5.594185-2.65311l-24.741883 8.823225c-2.277546 0.812546-3.465656 3.316639-2.65311 5.594185C408.023278 309.456684 409.708783 310.573305 411.508064 310.573305z" p-id="2776"></path><path d="M373.570108 324.102654c0.488333 0 0.984721-0.082564 1.471041-0.254739l24.741883-8.823225c2.277546-0.812546 3.465656-3.316639 2.65311-5.594185-0.812546-2.277546-3.315632-3.463642-5.594185-2.65311l-24.741883 8.823225c-2.277546 0.812546-3.465656 3.316639-2.65311 5.594185C370.085321 322.985025 371.770826 324.102654 373.570108 324.102654z" p-id="2777"></path><path d="M556.737367 434.062214c0.857856 0.884034 1.998642 1.327058 3.139429 1.327058 1.099505 0 2.200017-0.411811 3.050824-1.238453 1.734842-1.685505 1.77411-4.456419 0.089612-6.190253-1.876811-1.931182-3.29046-4.208728-4.203693-6.770212l-5.495511-15.40918c-0.812546-2.277546-3.320666-3.462635-5.594185-2.65311-2.277546 0.812546-3.465656 3.316639-2.654116 5.594185l5.495511 15.408173C551.904379 427.883036 553.979543 431.22384 556.737367 434.062214z" p-id="2778"></path><path d="M505.341551 297.312792l7.966377 22.339484c0.639364 1.791227 2.324869 2.908855 4.124151 2.908855 0.488333 0 0.984721-0.082564 1.470034-0.254739 2.277546-0.812546 3.465656-3.316639 2.654116-5.594185l-7.966377-22.338478c-0.232588-0.65346-0.430942-1.322024-0.589021-1.987567-0.558814-2.352055-2.912883-3.802958-5.271985-3.247164-2.351048 0.558814-3.804972 2.919931-3.246158 5.271985C504.713262 295.383624 505.003242 296.359284 505.341551 297.312792z" p-id="2779"></path><path d="M709.622931 387.343321l-24.741883 8.823225c-2.277546 0.812546-3.465656 3.316639-2.65311 5.594185 0.639364 1.791227 2.324869 2.908855 4.124151 2.908855 0.488333 0 0.984721-0.082564 1.470034-0.254739l24.741883-8.823225c2.277546-0.812546 3.465656-3.316639 2.65311-5.594185C714.404569 387.718884 711.895443 386.531781 709.622931 387.343321z" p-id="2780"></path><path d="M508.113471 283.714976c0.524581 0.205402 1.064264 0.302062 1.594886 0.302062 1.748938 0 3.401216-1.056209 4.077834-2.782996 1.983539-5.069604 6.05936-9.0246 11.179308-10.851067l6.07849-2.167797c2.277546-0.812546 3.465656-3.316639 2.65311-5.594185-0.813553-2.277546-3.32268-3.463642-5.594185-2.65311l-6.07849 2.167797c-7.509257 2.678281-13.484039 8.475854-16.393901 15.907582C504.75253 280.293623 505.863111 282.832956 508.113471 283.714976z" p-id="2781"></path><path d="M633.749032 414.401011l-24.741883 8.823225c-2.277546 0.812546-3.465656 3.316639-2.654116 5.594185 0.639364 1.791227 2.325876 2.908855 4.124151 2.908855 0.488333 0 0.984721-0.082564 1.470034-0.254739l24.741883-8.823225c2.277546-0.812546 3.465656-3.316639 2.654116-5.594185C638.530671 414.776574 636.021544 413.590478 633.749032 414.401011z" p-id="2782"></path><path d="M520.66716 327.253158c-2.277546 0.812546-3.465656 3.316639-2.654116 5.594185l8.823225 24.741883c0.639364 1.791227 2.324869 2.908855 4.124151 2.908855 0.488333 0 0.984721-0.082564 1.470034-0.254739 2.277546-0.812546 3.465656-3.316639 2.654116-5.594185l-8.823225-24.741883C525.448799 327.628722 522.939672 326.443633 520.66716 327.253158z" p-id="2783"></path><path d="M657.056121 224.088982c7.313923-0.410804 14.160658 3.465656 17.587045 9.880442 0.788381 1.476075 2.300704 2.316814 3.865384 2.316814 0.695749 0 1.402574-0.166134 2.059055-0.517533 2.132556-1.138773 2.937048-3.791883 1.798275-5.924439-5.026308-9.413253-15.041671-15.094029-25.796078-14.49796-2.413474 0.133914-4.262092 2.200017-4.127171 4.613491C652.576545 222.374278 654.62251 224.227931 657.056121 224.088982z" p-id="2784"></path><path d="M692.849439 284.412739l8.823225 24.741883c0.639364 1.791227 2.325876 2.908855 4.124151 2.908855 0.488333 0 0.984721-0.082564 1.470034-0.254739 2.277546-0.812546 3.465656-3.316639 2.65311-5.594185l-8.823225-24.741883c-0.812546-2.277546-3.32268-3.464649-5.594185-2.65311C693.225002 279.631101 692.037899 282.135193 692.849439 284.412739z" p-id="2785"></path><path d="M618.643928 236.707111c0.488333 0 0.984721-0.082564 1.470034-0.254739l24.741883-8.823225c2.277546-0.812546 3.465656-3.316639 2.654116-5.594185-0.812546-2.277546-3.321673-3.464649-5.594185-2.65311l-24.741883 8.823225c-2.277546 0.812546-3.465656 3.316639-2.65311 5.594185C615.160149 235.589482 616.845653 236.707111 618.643928 236.707111z" p-id="2786"></path><path d="M706.37778 322.349688l8.823225 24.741883c0.639364 1.791227 2.325876 2.908855 4.124151 2.908855 0.488333 0 0.984721-0.082564 1.470034-0.254739 2.277546-0.812546 3.465656-3.316639 2.654116-5.594185l-8.823225-24.741883c-0.813553-2.277546-3.321673-3.463642-5.594185-2.65311C706.753344 317.56805 705.566241 320.073149 706.37778 322.349688z" p-id="2787"></path><path d="M719.906122 360.287645l1.093464 3.066934c0.727969 2.041938 1.097491 4.163419 1.097491 6.306044 0 4.077834-1.367333 8.121435-3.849274 11.38471-1.462986 1.924134-1.089436 4.670882 0.834697 6.134875 0.792409 0.60211 1.722759 0.893096 2.647068 0.893096 1.321017 0 2.626931-0.596069 3.487807-1.727794 3.633804-4.778618 5.63446-10.704064 5.63446-16.684887 0-3.147484-0.539684-6.258721-1.604955-9.247119l-1.093464-3.066934c-0.812546-2.277546-3.316639-3.463642-5.594185-2.654116C720.282692 355.504999 719.094582 358.010099 719.906122 360.287645z" p-id="2788"></path><path d="M679.32009 246.474783l8.823225 24.741883c0.639364 1.791227 2.324869 2.908855 4.124151 2.908855 0.488333 0 0.984721-0.082564 1.470034-0.254739 2.277546-0.812546 3.465656-3.316639 2.654116-5.594185l-8.823225-24.741883c-0.812546-2.277546-3.320666-3.466663-5.594185-2.65311C679.695654 241.693145 678.508551 244.198244 679.32009 246.474783z" p-id="2789"></path><path d="M580.707986 250.235452c0.488333 0 0.984721-0.082564 1.470034-0.254739l24.740876-8.823225c2.277546-0.812546 3.465656-3.316639 2.654116-5.594185-0.812546-2.277546-3.321673-3.464649-5.594185-2.65311l-24.740876 8.823225c-2.277546 0.812546-3.465656 3.316639-2.654116 5.594185C577.223199 249.117824 578.909711 250.235452 580.707986 250.235452z" p-id="2790"></path><path d="M671.685982 400.872669l-24.740876 8.823225c-2.277546 0.812546-3.465656 3.316639-2.654116 5.594185 0.639364 1.791227 2.324869 2.908855 4.124151 2.908855 0.488333 0 0.984721-0.082564 1.470034-0.254739l24.740876-8.823225c2.277546-0.812546 3.465656-3.316639 2.654116-5.594185C676.466613 401.248233 673.957486 400.06113 671.685982 400.872669z" p-id="2791"></path><path d="M531.542392 370.785299l8.823225 24.741883c0.639364 1.791227 2.325876 2.908855 4.124151 2.908855 0.488333 0 0.984721-0.082564 1.470034-0.254739 2.277546-0.812546 3.465656-3.316639 2.65311-5.594185l-8.823225-24.741883c-0.812546-2.277546-3.320666-3.463642-5.594185-2.65311C531.917956 366.003661 530.730853 368.507753 531.542392 370.785299z" p-id="2792"></path><path d="M567.705232 436.746536c-0.47021 2.371185 1.069299 4.675917 3.441491 5.147133 1.76102 0.350392 3.561309 0.527601 5.351528 0.527601 3.147484 0 6.258721-0.540691 9.246112-1.605962l13.006781-4.637656c2.277546-0.812546 3.465656-3.316639 2.654116-5.594185-0.812546-2.277546-3.320666-3.466663-5.594185-2.65311l-13.006781 4.637656c-3.202862 1.142801-6.641332 1.394519-9.950923 0.738038C570.4842 432.829802 568.177455 434.375351 567.705232 436.746536z" p-id="2793"></path><path d="M542.770029 263.763794c0.488333 0 0.984721-0.082564 1.470034-0.254739l24.741883-8.823225c2.277546-0.812546 3.465656-3.316639 2.654116-5.594185-0.813553-2.277546-3.32268-3.464649-5.594185-2.65311l-24.741883 8.823225c-2.277546 0.812546-3.465656 3.316639-2.654116 5.594185C539.285243 262.647172 540.971755 263.763794 542.770029 263.763794z" p-id="2794"></path></svg>