<?xml version="1.0" standalone="no"?><!DOCTYPE svg PUBLIC "-//W3C//DTD SVG 1.1//EN" "http://www.w3.org/Graphics/SVG/1.1/DTD/svg11.dtd"><svg t="1562580760320" class="icon" viewBox="0 0 1024 1024" version="1.1" xmlns="http://www.w3.org/2000/svg" p-id="14006" xmlns:xlink="http://www.w3.org/1999/xlink" width="200" height="200"><defs><style type="text/css"></style></defs><path d="M511.508 942.078c-246.797 0-446.864-192.377-446.864-429.706 0-237.288 200.067-429.666 446.864-429.666 246.797 0 446.864 192.378 446.864 429.666 0 237.329-200.067 429.706-446.864 429.706zM454.58 784.745c9.714 9.053 22.45 13.614 38.203 13.614 12.855 0 24.218-4.492 34.063-13.437 9.85-8.958 14.769-19.423 14.769-31.353 0-12.446-4.987-23.141-14.969-32.099-9.975-8.944-21.921-13.423-35.834-13.423-13.918 0-25.859 4.478-35.84 13.423-9.976 8.958-14.958 19.653-14.958 32.099 0 11.7 4.852 22.096 14.566 31.176z m161.665-524.81c-29.28-22.218-68.074-33.333-116.378-33.333-47.253 0-92.807 12.419-136.652 37.297v73.441c35.965-34.366 77.98-51.589 126.023-51.589 27.569 0 50.275 6.596 68.13 19.897 17.848 13.248 26.779 31.353 26.779 54.304 0 12.894-3.738 26.548-11.225 40.88-7.481 14.333-27.762 35.71-60.841 64.144-32.296 28.448-52.383 50.72-60.256 66.872-7.873 16.111-11.811 32.072-11.811 47.857 0 20.061 3.278 38.953 9.839 56.625h73.646c-9.192-18.866-13.782-37.053-13.782-54.467 0-15.554 4.727-30.022 14.174-43.392 9.459-13.369 27.962-31.922 55.53-55.552 36.489-31.542 59.075-56.842 67.733-75.816 8.669-18.987 12.997-37.718 12.997-56.122 0-38.452-14.638-68.841-43.906-91.046z" fill="#8a8a8a" p-id="14007"></path></svg>