<?xml version="1.0" standalone="no"?><!DOCTYPE svg PUBLIC "-//W3C//DTD SVG 1.1//EN" "http://www.w3.org/Graphics/SVG/1.1/DTD/svg11.dtd"><svg t="1562574700726" class="icon" viewBox="0 0 1024 1024" version="1.1" xmlns="http://www.w3.org/2000/svg" p-id="12674" xmlns:xlink="http://www.w3.org/1999/xlink" width="200" height="200"><defs><style type="text/css"></style></defs><path d="M529.066667 733.866667a17.066667 17.066667 0 0 0 0 34.133333H187.733333a34.133333 34.133333 0 0 1-34.133333-34.133333V290.133333a34.133333 34.133333 0 0 1 34.133333-34.133333h563.2a34.133333 34.133333 0 0 1 34.133334 34.133333v187.221334l-34.133334-19.694934V307.2a17.066667 17.066667 0 0 0-17.066666-17.066667H204.8a17.066667 17.066667 0 0 0-17.066667 17.066667v409.6a17.066667 17.066667 0 0 0 17.066667 17.066667h324.266667z m256-211.387734V529.066667v-6.587734z m0 203.008V733.866667v-8.362667zM750.933333 768h-89.838933H750.933333zM273.066667 426.666667h204.8a17.066667 17.066667 0 0 1 0 34.133333H273.066667a17.066667 17.066667 0 0 1 0-34.133333z m0 136.533333h153.6a17.066667 17.066667 0 0 1 0 34.133333h-153.6a17.066667 17.066667 0 0 1 0-34.133333z m0 85.333333h153.6a17.066667 17.066667 0 0 1 0 34.133334h-153.6a17.066667 17.066667 0 0 1 0-34.133334z m0-307.2h307.2a17.066667 17.066667 0 0 1 0 34.133334H273.066667a17.066667 17.066667 0 1 1 0-34.133334z" p-id="12675"></path><path d="M708.283733 579.362133l153.275734 88.490667a12.629333 12.629333 0 0 1-12.629334 21.896533L695.637333 601.258667l-20.855466 36.130133a34.133333 34.133333 0 0 1-46.626134 12.4928l-50.346666-29.0816a34.133333 34.133333 0 0 1-12.509867-46.626133l54.357333-94.1568a34.133333 34.133333 0 0 1 46.626134-12.4928l50.363733 29.0816a34.133333 34.133333 0 0 1 12.4928 46.626133l-20.855467 36.130133z m-63.5392-168.072533l131.3792 75.861333a12.629333 12.629333 0 1 1-12.629333 21.896534l-131.396267-75.861334a12.629333 12.629333 0 1 1 12.629334-21.896533zM530.944 608.3584l131.3792 75.861333a12.629333 12.629333 0 1 1-12.629333 21.896534l-131.396267-75.861334a12.629333 12.629333 0 1 1 12.6464-21.896533zM563.2 733.866667h187.733333a17.066667 17.066667 0 0 1 0 34.133333H563.2a17.066667 17.066667 0 0 1 0-34.133333z" p-id="12676"></path></svg>