<?xml version="1.0" standalone="no"?><!DOCTYPE svg PUBLIC "-//W3C//DTD SVG 1.1//EN" "http://www.w3.org/Graphics/SVG/1.1/DTD/svg11.dtd"><svg t="1562574730700" class="icon" viewBox="0 0 1024 1024" version="1.1" xmlns="http://www.w3.org/2000/svg" p-id="13230" xmlns:xlink="http://www.w3.org/1999/xlink" width="200" height="200"><defs><style type="text/css"></style></defs><path d="M770.9 953H252.3c-6.4 0-11.5-5.2-11.5-11.5v-50c0-6.4 5.2-11.5 11.5-11.5H771c6.4 0 11.5 5.2 11.5 11.5v50c0 6.4-5.2 11.5-11.6 11.5z m-507.1-23.1h495.6V903H263.8v26.9z" p-id="13231"></path><path d="M812.2 902.1H211c-38.2 0-69.3-31.1-69.3-69.3v-95.1c0-38.2 31.1-69.3 69.3-69.3h601.2c38.2 0 69.3 31.1 69.3 69.3v95.1c0 38.2-31.1 69.3-69.3 69.3zM211 714.6c-12.7 0-23.1 10.4-23.1 23.1v95.1c0 12.7 10.4 23.1 23.1 23.1h601.2c12.7 0 23.1-10.4 23.1-23.1v-95.1c0-12.7-10.4-23.1-23.1-23.1H211z" p-id="13232"></path><path d="M642.2 710.5H381.1c-7.3 0-14.3-3.5-18.6-9.4-4.4-5.9-5.6-13.6-3.4-20.6L432.3 446c-71.7-31.3-120-103.4-120-182.8 0-109.9 89.4-199.3 199.3-199.3s199.3 89.4 199.3 199.3c0 79.4-48.3 151.6-120 182.8l73.3 234.6c2.2 7 0.9 14.6-3.4 20.6-4.4 5.8-11.3 9.3-18.6 9.3z m-229.7-46.2h198.3l-70.5-225.5c-1.8-5.9-1.2-12.3 1.6-17.7 2.9-5.4 7.8-9.5 13.8-11.3 64.2-19.3 109.1-79.6 109.1-146.6 0-84.4-68.7-153.2-153.1-153.2s-153.1 68.7-153.1 153.2c0 67.1 44.9 127.3 109.1 146.6 5.9 1.8 10.9 5.8 13.8 11.3 2.9 5.5 3.5 11.8 1.6 17.7l-70.6 225.5z" p-id="13233"></path></svg>